<?xml version="1.0" standalone="no"?>
<!DOCTYPE svg PUBLIC "-//W3C//DTD SVG 20010904//EN"
 "http://www.w3.org/TR/2001/REC-SVG-20010904/DTD/svg10.dtd">
<svg version="1.0" xmlns="http://www.w3.org/2000/svg"
 width="1280.000000pt" height="1280.000000pt" viewBox="0 0 1280.000000 1280.000000"
 preserveAspectRatio="xMidYMid meet">
<metadata>
Created by potrace 1.14, written by Peter Selinger 2001-2017
</metadata>
<g transform="translate(0.000000,1280.000000) scale(0.100000,-0.100000)"
fill="#000000" stroke="none">
<path d="M2305 11369 c-221 -25 -422 -123 -586 -288 -169 -168 -262 -361 -289
-596 -14 -125 -14 -8045 0 -8170 27 -235 120 -428 289 -596 168 -169 361 -262
596 -289 125 -14 8045 -14 8170 0 235 27 428 120 596 289 169 168 262 361 289
596 14 125 14 8045 0 8170 -27 235 -120 428 -289 596 -168 169 -361 262 -596
289 -108 12 -8072 12 -8180 -1z m123 -396 c-16 -2 -40 -2 -55 0 -16 2 -3 4 27
4 30 0 43 -2 28 -4z m8000 0 c-16 -2 -40 -2 -55 0 -16 2 -3 4 27 4 30 0 43 -2
28 -4z m-8155 -23 c-87 -23 -140 -49 -215 -107 -101 -77 -174 -187 -209 -316
-13 -49 -18 -59 -14 -30 18 144 141 317 283 401 56 32 167 72 202 71 14 0 -7
-9 -47 -19z m8288 0 c203 -63 380 -262 404 -453 4 -29 -1 -19 -14 30 -35 129
-108 239 -209 316 -75 58 -128 84 -215 107 -40 10 -62 19 -51 19 12 1 50 -8
85 -19z m-8734 -577 c-2 -16 -4 -3 -4 27 0 30 2 43 4 28 2 -16 2 -40 0 -55z
m9150 0 c-2 -16 -4 -3 -4 27 0 30 2 43 4 28 2 -16 2 -40 0 -55z m-4777 -313
c35 -38 40 -40 96 -40 54 0 152 -27 180 -51 6 -5 51 -8 100 -8 116 2 158 -15
227 -92 l54 -59 31 33 c17 17 51 43 76 57 41 22 49 23 81 11 32 -11 40 -10 78
8 116 56 226 36 388 -72 26 -18 27 -18 72 27 119 116 232 73 324 -122 24 -51
47 -92 52 -90 4 2 32 32 61 66 61 74 121 115 192 132 100 25 249 -7 327 -70
55 -43 85 -108 89 -197 2 -40 8 -73 12 -73 5 0 18 14 30 30 36 51 110 34 110
-26 0 -20 -18 -228 -35 -399 -2 -27 -12 -122 -20 -210 -8 -88 -22 -227 -30
-310 -8 -82 -24 -242 -35 -355 -11 -113 -36 -371 -55 -575 -20 -203 -40 -410
-45 -460 -5 -49 -19 -200 -31 -335 l-23 -245 61 -160 c169 -445 275 -864 318
-1245 15 -141 19 -399 5 -420 -12 -19 -13 -17 -11 115 6 386 -125 999 -325
1515 -77 198 -75 183 -49 445 63 628 255 2643 253 2655 -2 8 -14 17 -28 20
-21 5 -28 0 -47 -32 -29 -50 -92 -127 -113 -138 -15 -8 -14 -1 6 50 30 73 40
161 24 218 -34 128 -224 218 -378 178 -105 -27 -178 -89 -234 -200 l-24 -48
-17 25 c-9 13 -27 53 -41 87 -65 159 -143 235 -221 216 -30 -8 -99 -68 -122
-106 l-16 -27 -71 54 c-146 110 -273 123 -372 40 -26 -22 -33 -24 -38 -12 -8
22 -47 34 -77 23 -15 -5 -54 -38 -88 -72 l-60 -63 -15 38 c-23 56 -81 115
-132 135 -34 13 -63 16 -126 11 -71 -5 -86 -3 -109 14 -64 45 -155 60 -214 35
-30 -12 -30 -12 -40 23 -13 43 -64 81 -109 81 -111 -1 -352 -116 -409 -197
l-30 -42 -19 25 c-27 34 -70 54 -117 54 -46 0 -95 -36 -132 -98 -13 -20 -24
-38 -25 -40 -1 -2 -24 12 -51 31 -111 79 -217 110 -293 86 l-45 -14 -55 57
c-86 88 -175 100 -304 40 -120 -56 -195 -165 -197 -285 l0 -52 -91 -44 c-161
-77 -216 -158 -169 -247 20 -38 21 -46 10 -83 l-12 -42 -66 65 c-37 37 -71 66
-77 66 -6 0 -18 -6 -28 -13 -16 -12 -14 -25 29 -219 25 -114 131 -714 235
-1334 l189 -1128 -31 -58 c-75 -140 -161 -153 -264 -40 -78 85 -193 296 -265
487 -29 78 -42 101 -58 103 -17 3 -21 -2 -21 -21 0 -14 -5 -27 -12 -29 -25 -9
131 -355 220 -488 58 -87 146 -174 197 -195 79 -34 162 -6 222 73 18 24 33 42
33 40 0 -2 18 -109 40 -238 22 -129 90 -532 150 -895 61 -363 113 -668 116
-677 4 -14 16 -18 55 -18 30 0 49 4 49 11 0 12 -130 786 -305 1819 -52 305
-119 704 -150 885 -104 613 -274 1610 -281 1645 -9 41 -19 47 147 -83 62 -49
141 -105 176 -125 35 -20 65 -43 68 -52 5 -20 439 -2631 631 -3807 l48 -293
73 0 72 0 -4 28 c-3 15 -127 761 -275 1657 -148 897 -300 1812 -337 2034 -43
260 -63 408 -57 416 5 6 24 31 42 55 41 55 70 148 84 275 6 55 13 102 14 104
2 2 29 -20 61 -49 81 -74 169 -139 228 -166 l50 -23 91 -777 91 -777 -18 -57
c-107 -346 -58 -775 120 -1033 28 -41 32 -58 51 -213 27 -232 30 -214 -29
-214 l-50 0 25 -74 c14 -41 46 -114 70 -163 l45 -88 54 -455 c30 -250 55 -461
55 -467 0 -9 22 -13 74 -13 l75 0 -5 32 c-12 88 -74 611 -74 630 0 18 6 15 43
-23 57 -60 150 -137 217 -179 30 -19 58 -39 62 -45 4 -5 8 -44 8 -85 0 -41 3
-132 7 -202 l6 -128 70 0 69 0 -7 179 -7 178 72 -24 c40 -13 119 -32 176 -41
l104 -17 0 -137 0 -138 65 0 65 0 0 134 0 135 48 6 c138 19 297 79 380 142
l35 26 -7 -164 c-4 -90 -9 -190 -13 -221 l-6 -58 71 0 70 0 6 72 c6 77 26 450
26 490 0 13 22 54 49 91 88 121 188 340 216 473 l6 31 -121 8 -121 7 6 81 c3
45 10 162 15 259 l9 178 51 66 c61 80 132 222 160 324 22 78 49 257 50 323 0
36 -1 37 -35 37 l-35 0 0 -57 c0 -146 -48 -333 -123 -478 -48 -94 -165 -219
-237 -253 -230 -110 -474 40 -596 366 -106 285 -96 638 27 900 74 160 159 255
276 310 49 23 71 27 143 27 72 0 94 -5 142 -28 193 -94 341 -370 364 -679 l7
-88 35 0 34 0 -7 78 c-17 186 -70 366 -144 492 l-41 68 30 613 c36 740 36 739
58 739 35 0 139 59 196 111 32 29 76 77 98 107 l40 54 62 -60 c70 -68 166
-133 232 -158 24 -9 44 -18 44 -19 0 -5 -82 -797 -115 -1110 -19 -181 -104
-996 -190 -1810 -85 -814 -157 -1499 -160 -1522 l-6 -43 70 0 70 0 5 33 c3 17
26 228 51 467 24 239 72 692 105 1005 130 1245 250 2393 275 2630 14 138 28
268 31 290 l6 41 66 12 c39 7 104 31 155 56 62 32 87 40 87 30 0 -16 -110
-1164 -295 -3089 -69 -715 -128 -1329 -131 -1365 -3 -36 -7 -75 -10 -87 -4
-22 -1 -23 49 -23 l54 0 11 123 c7 67 43 448 82 847 38 399 70 736 71 750 1
23 2 22 16 -10 8 -19 37 -98 63 -175 148 -430 242 -869 257 -1202 4 -102 3
-146 -6 -156 -9 -12 -6 -18 13 -30 29 -19 72 -77 57 -77 -6 0 -29 16 -51 36
l-41 37 7 72 c10 113 -17 352 -71 633 -50 254 -193 741 -220 745 -10 2 -17
-42 -29 -178 -3 -38 -13 -135 -21 -215 -7 -80 -23 -246 -35 -370 -12 -124 -35
-357 -51 -519 -16 -161 -29 -297 -29 -302 0 -4 330 -10 733 -11 730 -3 732 -4
812 -26 288 -83 508 -266 635 -527 89 -181 95 -221 95 -585 0 -298 -1 -319
-23 -400 -60 -217 -188 -410 -362 -542 -81 -62 -239 -140 -345 -170 -80 -23
-83 -23 -866 -26 l-786 -3 -37 -114 c-43 -134 -63 -157 -114 -131 -41 21 -44
46 -18 124 13 37 26 79 30 95 l6 27 -1561 0 -1561 0 6 -32 c13 -64 27 -180 23
-185 -6 -5 -47 166 -47 196 0 18 -6 21 -41 21 l-41 0 7 -42 c4 -24 16 -83 27
-131 l20 -88 35 7 c26 5 34 4 29 -5 -4 -6 -22 -11 -40 -11 -28 0 -35 5 -49 38
-18 40 -47 168 -47 207 l0 24 -822 3 c-822 3 -823 3 -903 26 -349 100 -612
364 -707 712 -22 81 -23 102 -23 400 0 364 6 404 95 585 127 261 347 444 635
527 80 23 80 23 853 26 424 1 772 6 772 10 0 22 -284 1701 -291 1720 -9 23
-10 23 -32 8 -81 -58 -137 -68 -221 -40 -98 34 -213 180 -327 419 -97 203
-115 257 -99 295 17 41 47 62 71 49 20 -10 29 -29 84 -164 20 -49 63 -140 95
-202 161 -308 274 -361 371 -174 l22 43 -87 522 c-225 1354 -297 1772 -330
1911 -52 228 -52 228 -20 254 34 27 54 21 113 -31 54 -47 73 -38 46 21 -45
100 27 206 191 282 54 25 60 33 73 102 6 32 19 77 29 100 26 58 102 129 180
169 56 28 76 33 131 32 77 -1 138 -24 196 -75 37 -33 40 -34 129 -34 96 -1
147 -17 247 -80 l40 -26 45 50 c28 31 62 56 89 67 l45 17 63 -31 62 -31 45 39
c107 94 267 158 394 159 68 1 70 0 106 -39z m-66 -46 c27 -27 18 -72 -39 -189
-52 -106 -57 -113 -98 -129 -23 -9 -66 -34 -94 -56 -36 -27 -53 -35 -53 -25 0
8 6 15 14 15 7 0 16 12 19 26 4 23 -1 28 -47 48 -76 34 -116 71 -116 108 0 59
112 138 270 192 87 30 122 32 144 10z m-1308 -65 c66 -31 113 -106 144 -226 6
-24 16 -43 22 -43 7 0 6 -5 -2 -15 -10 -12 -10 -18 1 -32 7 -10 14 -19 15 -21
1 -1 30 11 65 28 165 78 211 8 152 -225 -18 -73 -52 -155 -64 -155 -5 0 -9 13
-9 28 0 104 -191 292 -321 316 -21 4 -55 0 -85 -9 -27 -8 -50 -15 -51 -15 -2
0 -3 12 -3 26 0 15 -12 38 -31 56 -29 30 -32 30 -105 26 l-74 -5 0 36 c0 81
62 166 154 213 84 43 130 47 192 17z m1574 -36 c105 -52 210 -184 210 -263 0
-51 -37 -117 -88 -155 -24 -19 -49 -35 -53 -35 -5 0 -13 17 -19 39 -24 89
-136 187 -246 216 -31 8 -59 16 -61 18 -6 7 53 148 68 162 24 24 73 45 105 45
16 0 54 -12 84 -27z m307 -61 c45 -32 77 -104 81 -184 2 -38 8 -68 12 -68 4 0
26 27 49 59 50 72 142 171 159 171 15 0 16 -90 1 -160 -8 -35 -15 -50 -24 -46
-8 3 -18 -8 -26 -27 -7 -18 -21 -45 -32 -61 -19 -27 -23 -28 -73 -23 -43 4
-55 2 -70 -14 -16 -18 -16 -20 3 -42 39 -42 45 -63 25 -87 l-18 -22 -31 30
c-19 17 -61 38 -105 52 -40 13 -75 25 -77 26 -2 2 10 19 26 38 89 101 80 232
-25 348 l-37 41 66 -5 c46 -2 74 -10 96 -26z m-1109 -27 c74 -84 154 -285 139
-347 -8 -32 -46 -46 -86 -32 -14 5 -46 37 -71 71 -45 62 -60 74 -60 50 0 -7
-6 -21 -13 -30 -11 -16 -15 -16 -61 -1 -47 16 -50 16 -63 -1 -21 -30 -16 -40
32 -63 25 -12 45 -26 45 -32 0 -20 -48 -105 -94 -167 -59 -81 -117 -123 -168
-123 -38 0 -50 12 -24 27 46 27 103 169 126 316 16 95 3 172 -35 207 -33 31
-100 37 -166 16 -28 -10 -55 -14 -59 -9 -8 9 -31 88 -33 117 -2 14 7 22 32 28
58 16 153 -17 248 -84 23 -17 46 -27 52 -24 7 4 8 1 5 -8 -4 -11 3 -19 21 -26
15 -6 29 -9 30 -8 1 2 14 29 28 60 54 119 108 139 175 63z m1757 16 c33 -15
81 -47 106 -69 26 -23 49 -38 53 -35 3 3 6 0 6 -9 0 -8 11 -20 25 -26 23 -11
26 -9 46 31 33 65 58 96 90 113 28 14 33 14 61 -3 30 -17 107 -140 108 -170 0
-9 -16 -13 -45 -13 -54 0 -155 -37 -228 -83 -100 -64 -98 -131 5 -162 28 -8
62 -15 75 -15 33 0 29 -13 -20 -53 -148 -121 -241 -112 -445 43 -98 75 -156
143 -149 174 3 12 14 63 25 113 22 101 42 135 100 170 52 32 112 30 187 -6z
m1055 -76 c65 -23 106 -59 126 -111 15 -39 16 -56 7 -108 -6 -33 -23 -88 -39
-121 -15 -33 -28 -66 -27 -72 0 -7 -4 -13 -10 -13 -5 0 -15 -7 -21 -16 -18
-24 -134 -40 -204 -27 -107 20 -167 57 -282 173 -58 58 -113 109 -123 113 -20
7 -27 0 -70 -73 -33 -55 -33 -55 -77 -52 -57 4 -120 20 -120 31 0 32 154 104
235 109 50 3 65 0 87 -18 15 -12 31 -36 36 -53 7 -27 14 -33 40 -35 25 -3 32
1 32 14 0 9 15 49 34 88 81 167 215 228 376 171z m-2168 -126 c54 -27 122 -92
142 -133 17 -36 21 -93 8 -114 -11 -16 -101 77 -161 167 l-44 64 -26 -79 c-55
-162 -131 -266 -207 -280 -37 -7 -113 23 -189 76 -45 31 -57 50 -32 50 23 0
58 45 64 83 4 29 9 35 21 28 11 -6 29 6 69 45 52 53 129 100 188 115 44 11
122 1 167 -22z m-1613 -31 c12 -33 1 -88 -25 -128 -33 -49 -76 -158 -72 -183
2 -11 13 -24 26 -28 20 -8 25 -2 56 59 18 37 41 88 51 114 9 26 26 55 37 65
21 18 21 18 15 -157 -10 -301 -61 -436 -158 -416 -46 9 -279 178 -279 202 0 6
13 28 30 49 16 20 27 42 23 48 -4 6 0 8 10 4 10 -3 17 -3 17 1 0 4 3 17 6 29
5 18 -2 25 -50 48 -63 30 -116 78 -116 105 0 70 244 209 368 210 45 0 54 -3
61 -22z m261 -88 c120 -61 224 -212 202 -294 l-8 -28 -75 59 c-79 63 -244 225
-260 256 -22 39 69 44 141 7z m2186 -164 c47 -41 126 -98 175 -127 l89 -52 0
-91 c0 -50 -11 -307 -25 -571 -14 -264 -25 -496 -25 -516 l0 -37 -81 42 c-80
40 -83 41 -183 41 -91 -1 -107 -4 -166 -31 -36 -17 -91 -52 -122 -78 l-58 -47
0 554 c0 305 3 594 6 643 l7 89 55 24 c64 29 155 109 203 181 19 27 35 50 37
50 1 0 41 -33 88 -74z m1610 37 c-10 -10 -19 5 -10 18 6 11 8 11 12 0 2 -7 1
-15 -2 -18z m-2103 -2 c79 -21 137 -46 137 -60 0 -10 -41 -29 -98 -47 -40 -12
-47 -11 -95 10 -82 38 -90 45 -76 84 13 39 26 40 132 13z m-294 -49 c85 -75
152 -121 210 -143 l46 -17 0 -763 0 -764 -32 -86 c-93 -253 -90 -585 7 -851
l30 -82 0 -354 0 -354 -172 7 c-95 3 -182 8 -194 10 -19 4 -22 14 -27 96 -4
51 -7 128 -7 171 l0 80 48 54 c58 65 131 200 166 308 28 85 52 220 59 329 l5
67 -32 0 -32 0 -12 -117 c-17 -161 -43 -258 -107 -390 -44 -90 -68 -125 -122
-180 -43 -43 -91 -80 -128 -99 -54 -26 -70 -29 -155 -29 -89 0 -99 2 -158 34
-137 75 -260 258 -319 476 -25 93 -27 114 -27 305 0 191 2 212 27 305 60 220
181 401 319 476 59 32 69 34 158 34 85 0 101 -3 155 -29 97 -48 182 -143 249
-278 62 -127 91 -230 108 -384 l12 -105 30 3 c30 3 30 3 28 63 -4 89 -30 230
-58 315 -47 138 -111 247 -202 340 l-83 84 -19 446 c-11 245 -22 536 -26 648
l-7 202 54 53 c30 30 72 81 94 115 22 34 42 62 44 62 2 0 33 -26 70 -58z
m-477 -143 l78 -39 0 -76 c0 -72 36 -996 43 -1099 l3 -50 -101 0 c-94 0 -105
-2 -170 -34 -48 -23 -93 -57 -141 -105 l-72 -71 -16 140 c-39 323 -106 940
-117 1068 l-12 137 47 41 c56 49 121 133 165 211 l33 57 91 -70 c51 -39 127
-89 169 -110z m-1533 43 c-63 -84 -84 -81 -58 9 l12 38 29 -15 c25 -13 28 -18
17 -32z m-209 -7 c7 -9 8 -15 2 -15 -5 0 -12 7 -16 15 -3 8 -4 15 -2 15 2 0 9
-7 16 -15z m2773 -2925 c104 -51 210 -59 311 -23 22 7 41 11 44 9 5 -5 -14
-385 -20 -391 -1 -2 -114 2 -251 8 l-247 11 0 254 0 254 51 -46 c28 -25 78
-59 112 -76z m-1128 -131 c62 -23 174 -24 240 -4 27 8 50 13 51 12 1 -1 5 -53
9 -116 l7 -113 -178 7 c-99 4 -181 9 -183 11 -4 4 -29 190 -31 223 0 9 6 11
18 6 9 -5 40 -16 67 -26z m1015 -920 c57 -25 140 -79 140 -89 0 -17 -141 -35
-275 -34 -122 0 -151 4 -228 27 -107 33 -240 88 -231 96 10 11 136 18 344 19
187 1 209 0 250 -19z m-4903 -2886 c-2 -16 -4 -3 -4 27 0 30 2 43 4 28 2 -16
2 -40 0 -55z m9150 0 c-2 -16 -4 -3 -4 27 0 30 2 43 4 28 2 -16 2 -40 0 -55z
m-9089 -210 c37 -71 110 -160 168 -205 76 -58 129 -85 217 -109 49 -13 59 -18
30 -14 -146 18 -319 142 -404 289 -32 55 -69 165 -68 200 0 11 9 -11 19 -51
10 -39 27 -88 38 -110z m9067 90 c-9 -32 -31 -85 -48 -118 -41 -78 -164 -201
-242 -242 -64 -33 -155 -63 -189 -62 -12 0 11 9 51 19 87 23 140 49 215 107
104 79 185 206 210 328 7 32 14 52 16 42 2 -9 -4 -43 -13 -74z m-8527 -430
c-16 -2 -40 -2 -55 0 -16 2 -3 4 27 4 30 0 43 -2 28 -4z m8000 0 c-16 -2 -40
-2 -55 0 -16 2 -3 4 27 4 30 0 43 -2 28 -4z"/>
<path d="M6943 7601 c-119 -55 -207 -220 -220 -416 -18 -276 132 -525 317
-525 168 0 319 214 320 452 l0 57 -72 3 -73 3 65 24 c36 13 68 26 73 30 4 4
-2 42 -13 85 -48 190 -160 306 -295 306 -37 0 -76 -8 -102 -19z"/>
<path d="M3299 4560 c-109 -13 -189 -37 -294 -89 -175 -87 -289 -201 -375
-376 -76 -153 -100 -275 -100 -515 0 -240 24 -362 100 -515 86 -175 200 -289
375 -375 111 -56 180 -76 305 -90 116 -13 6244 -13 6360 0 125 14 194 34 305
90 175 86 289 200 375 375 76 153 100 275 100 515 0 240 -24 362 -100 515 -86
175 -200 289 -375 375 -111 56 -180 76 -305 90 -102 12 -6271 11 -6371 0z"/>
<path d="M8105 2428 c-2 -7 -18 -54 -34 -104 -17 -50 -31 -94 -31 -97 0 -3 14
-10 32 -16 24 -9 34 -8 40 1 6 10 45 123 73 216 3 8 -8 12 -36 12 -23 0 -41
-5 -44 -12z"/>
<path d="M5800 7501 c-105 -34 -190 -135 -237 -280 -24 -75 -29 -255 -9 -342
45 -202 162 -330 302 -330 169 0 301 176 321 428 l6 82 -69 3 -69 3 63 23 c70
26 72 30 47 121 -31 118 -100 220 -180 267 -47 27 -132 39 -175 25z"/>
</g>
</svg>
